<?xml version="1.0" encoding="utf-8"?>
<!-- Generator: Adobe Illustrator 25.0.1, SVG Export Plug-In . SVG Version: 6.00 Build 0)  -->
<svg version="1.0" id="katman_1" xmlns="http://www.w3.org/2000/svg" xmlns:xlink="http://www.w3.org/1999/xlink" x="0px" y="0px"
	 viewBox="0 0 600 400" style="enable-background:new 0 0 600 400;" xml:space="preserve">
<g>
	<path d="M155.5,181.4v13.4h32.2c-1.6,18.7-17.3,26.7-32.2,26.7c-19,0-35.6-14.8-35.6-35.6c0-20.2,15.8-35.8,35.6-35.8
		c15.3,0,24.3,9.7,24.3,9.7l9.4-9.7c0,0-12.1-13.4-34.2-13.4c-28.2,0-49.9,23.5-49.9,48.9c0,24.9,20.5,49.2,50.6,49.2
		c26.5,0,45.9-18,45.9-44.6c0-5.6-0.8-8.9-0.8-8.9L155.5,181.4z M238.2,171.8c-18.7,0-32,14.4-32,31.3c0,17.1,13,31.8,32.2,31.8
		c17.4,0,31.7-13.2,31.7-31.4C270.2,182.5,253.6,171.8,238.2,171.8z M238.4,184.1c9.2,0,17.9,7.3,17.9,19.2
		c0,11.6-8.7,19.1-17.9,19.1c-10.2,0-18.2-8.1-18.2-19.2C220.2,192.3,228.1,184.1,238.4,184.1z M307.9,171.8
		c-18.7,0-32,14.4-32,31.3c0,17.1,13,31.8,32.2,31.8c17.4,0,31.7-13.2,31.7-31.4C339.8,182.5,323.2,171.8,307.9,171.8z M308.1,184.1
		c9.2,0,17.9,7.3,17.9,19.2c0,11.6-8.7,19.1-17.9,19.1c-10.2,0-18.2-8.1-18.2-19.2C289.8,192.3,297.7,184.1,308.1,184.1z
		 M376.2,171.8c-17.1,0-30.6,14.8-30.6,31.5c0,19,15.6,31.6,30.3,31.6c9.1,0,13.9-3.6,17.5-7.7v6.2c0,10.9-6.7,17.4-16.7,17.4
		c-9.7,0-14.6-7.2-16.3-11.2l-12.2,5.1c4.3,9.1,13.1,18.6,28.6,18.6c17,0,30-10.6,30-32.9v-56.7h-13.4v5.3
		C389.2,174.6,383.6,171.8,376.2,171.8L376.2,171.8z M377.4,184.2c8.4,0,17,7.1,17,19.2c0,12.3-8.6,19.1-17.2,19.1
		c-9.1,0-17.6-7.3-17.6-19C359.6,191.4,368.4,184.2,377.4,184.2L377.4,184.2z M466.1,171.7c-16.1,0-29.7,12.7-29.7,31.5
		c0,19.9,15.1,31.6,31.3,31.6c13.5,0,21.7-7.3,26.7-13.8l-11-7.3c-2.9,4.4-7.6,8.7-15.6,8.7c-9,0-13.1-4.9-15.6-9.6l42.7-17.5
		l-2.2-5.1C488.4,180.1,478.8,171.7,466.1,171.7L466.1,171.7z M466.6,183.8c5.8,0,10,3.1,11.8,6.7l-28.5,11.8
		C448.7,193.2,457.4,183.8,466.6,183.8z M416,233h14v-93h-14V233z"/>
</g>
</svg>
