<svg id="Layer_1" data-name="Layer 1" xmlns="http://www.w3.org/2000/svg" viewBox="0 0 516.74 516.74"><defs><style>.cls-1{fill:#231f20;}.cls-2{fill:none;stroke:#231f20;stroke-miterlimit:10;stroke-width:30px;}</style></defs><path class="cls-1" d="M460.58,324.54a9.4,9.4,0,0,1,17.65,3,111,111,0,1,1-220.85,19.82c-.33-9.15,11.27-13.25,16.87-6l.18.22a111.08,111.08,0,0,0,186.15-17Z" transform="translate(-166.73 -47.77)"/><path class="cls-1" d="M487.46,181.47a9.41,9.41,0,0,0,4.18-17.41A111,111,0,1,0,386.77,359.44c8.28,3.88,16.61-5.17,12.15-13.17l-.14-.24a111.08,111.08,0,0,1,88.68-164.56Z" transform="translate(-166.73 -47.77)"/><path class="cls-1" d="M521.15,437.09a9.41,9.41,0,0,0,14.25,10.84,111,111,0,1,0-136.56-174.7c-6.9,6-2,17.28,7.15,16.43l.28,0A111.07,111.07,0,0,1,521.15,437.09Z" transform="translate(-166.73 -47.77)"/><circle class="cls-2" cx="258.37" cy="258.37" r="243.37"/></svg>