<svg id="Layer_1" data-name="Layer 1" xmlns="http://www.w3.org/2000/svg" viewBox="0 0 593.52 558.87"><defs><style>.cls-1{fill:#fff;}</style></defs><path class="cls-1" d="M466.72,340.31c7.67-14.78,29.84-11,32.2,5.44a202.41,202.41,0,0,1-76.06,188.62C334.63,603.05,207.42,587.2,138.73,499A201.49,201.49,0,0,1,96.15,381.89c-.59-16.68,20.56-24.16,30.78-11l.32.4c68.69,88.24,195.9,104.08,284.13,35.39A201.59,201.59,0,0,0,466.72,340.31Z" transform="translate(-96.14 -18.2)"/><path class="cls-1" d="M515.74,79.4c16.6-1.25,21.86-23.11,7.63-31.74a202.42,202.42,0,0,0-203.34-4c-97.79,54.22-133.12,177.45-78.91,275.24a201.56,201.56,0,0,0,91,85.1c15.11,7.08,30.29-9.44,22.16-24l-.25-.45c-54.21-97.81-18.88-221,78.91-275.24A201.73,201.73,0,0,1,515.74,79.4Z" transform="translate(-96.14 -18.2)"/><path class="cls-1" d="M577.2,545.56c-5.55,15.7,12.34,29.32,26,19.77A202.41,202.41,0,0,0,688.8,380.86C678.57,269.51,580,187.53,468.68,197.74a201.52,201.52,0,0,0-114.55,49c-12.57,11-3.57,31.52,13.05,30l.51-.05c111.36-10.22,209.9,71.77,220.12,183.11A201.62,201.62,0,0,1,577.2,545.56Z" transform="translate(-96.14 -18.2)"/></svg>