<svg id="Layer_1" data-name="Layer 1" xmlns="http://www.w3.org/2000/svg" viewBox="0 0 737.31 185.91"><defs><style>.cls-1{fill:#231f20;}</style></defs><path class="cls-1" d="M179.41,311.83a5.71,5.71,0,0,1,10.71,1.81,67.35,67.35,0,1,1-134,12A5.71,5.71,0,0,1,66.38,322l.11.13a67.38,67.38,0,0,0,112.92-10.32Z" transform="translate(-56.14 -204.68)"/><path class="cls-1" d="M195.72,225a5.71,5.71,0,0,0,2.54-10.56A67.36,67.36,0,1,0,134.64,333a5.71,5.71,0,0,0,7.37-8l-.08-.15A67.38,67.38,0,0,1,195.72,225Z" transform="translate(-56.14 -204.68)"/><path class="cls-1" d="M216.16,380.11a5.71,5.71,0,0,0,8.64,6.58,67.35,67.35,0,1,0-82.84-106,5.7,5.7,0,0,0,4.34,10h.17a67.38,67.38,0,0,1,69.69,89.45Z" transform="translate(-56.14 -204.68)"/><path class="cls-1" d="M335.1,378q-8.94,0-14.43-2.45a19.92,19.92,0,0,1-8.41-6.6,24.52,24.52,0,0,1-4-9.54,56.3,56.3,0,0,1-1.07-11.12V218.36h19.49v128q0,8.31,3.25,12.46a12.06,12.06,0,0,0,9.1,4.58l6,.1v12.78a44.53,44.53,0,0,1-5.12,1.23A27.21,27.21,0,0,1,335.1,378Z" transform="translate(-56.14 -204.68)"/><path class="cls-1" d="M408.8,378.74a56,56,0,0,1-16.24-2.5,41.24,41.24,0,0,1-13.48-7.08,33.11,33.11,0,0,1-9.21-11.66,37.18,37.18,0,0,1-3.35-16.24V266.5h19.7v72.73q0,10.77,6.66,17.47T413,363.41q12.14,0,19.54-6.34t7.4-18.9V266.5h19.6V376.61H443.83l-2-21.08a27.89,27.89,0,0,1-18.48,20.92A41.43,41.43,0,0,1,408.8,378.74Z" transform="translate(-56.14 -204.68)"/><path class="cls-1" d="M493.24,376.61V266.5h19.17v16a32.89,32.89,0,0,1,7.4-8.57,37.4,37.4,0,0,1,11.5-6.44A45.56,45.56,0,0,1,546.92,265a44.81,44.81,0,0,1,19.22,4.1A32,32,0,0,1,580.2,282q5.26,8.79,5.27,22.63v72H565.76V306.54q0-12.89-6.76-19.12t-17.52-6.23a39.93,39.93,0,0,0-14,2.4A24.46,24.46,0,0,0,517,290.83a18.38,18.38,0,0,0-4,12.2v73.58Z" transform="translate(-56.14 -204.68)"/><path class="cls-1" d="M646.81,378.74A44.54,44.54,0,0,1,627.9,375a29.78,29.78,0,0,1-12.77-10.91q-4.64-7.14-4.64-17.26,0-18.32,12.78-27.26t41-9.58l19.6-.53v-8.63q0-10.12-6.07-16T659.05,279a31.75,31.75,0,0,0-16.72,4.36q-7.23,4.38-9.26,14.27H615.71q.64-10.75,6-18.15A33,33,0,0,1,636.9,268.2q9.79-3.82,23.11-3.83,14.38,0,23.91,4a29.53,29.53,0,0,1,14.27,11.93q4.74,7.89,4.74,19.38v76.89H686.1L684.61,356q-6.39,12.89-16.18,17.84A47.28,47.28,0,0,1,646.81,378.74Zm5.85-14.16a31.85,31.85,0,0,0,11.13-2,37.85,37.85,0,0,0,10-5.49,30.69,30.69,0,0,0,7.3-7.77,16.32,16.32,0,0,0,2.77-8.89V321.56l-16.3.32a83.77,83.77,0,0,0-21.08,2.6q-8.41,2.4-12.68,7.35t-4.26,13.05q0,9.25,6.5,14.48T652.66,364.58Z" transform="translate(-56.14 -204.68)"/><path class="cls-1" d="M733.6,376.61V266.5h18.85v21.19a35.16,35.16,0,0,1,7.77-13.05,32.71,32.71,0,0,1,11.45-7.72A36,36,0,0,1,785,264.37a34.31,34.31,0,0,1,4.79.32,10.07,10.07,0,0,1,3.62,1.06v19.06a13.35,13.35,0,0,0-4.1-1c-1.67-.17-3.07-.26-4.21-.26a44.78,44.78,0,0,0-12.35.8,28.17,28.17,0,0,0-10.12,4.2,21,21,0,0,0-6.87,7.83,25.37,25.37,0,0,0-2.5,11.77v68.47Z" transform="translate(-56.14 -204.68)"/></svg>