<?xml version="1.0" encoding="UTF-8"?>
<svg id="katman_1" data-name="katman 1" xmlns="http://www.w3.org/2000/svg" version="1.1" viewBox="0 0 841.89 595.28">
  <defs>
    <style>
      .cls-1, .cls-2 {
        fill: #1c2024;
        stroke-width: 0px;
      }

      .cls-2 {
        fill-rule: evenodd;
      }
    </style>
  </defs>
  <path class="cls-1" d="M471.07,375.72h23.46c-1.71-8.92-2.58-17.4-2.58-27.62v-42.63c0-28.71-16.39-42.85-45.81-42.85-26.64,0-44.76,13.92-47.11,37.63h26.22c.85-10.22,8.1-16.97,20.04-16.97s20.46,6.52,20.46,20.01v5.22l-32.4,3.7c-21.95,2.61-39.01,11.74-39.01,33.93,0,20.01,15.35,31.97,36.45,31.97,17.27,0,31.83-7.18,37.86-19.79.27,7.56,2.41,17.4,2.41,17.4ZM438.25,358.76c-10.87,0-16.84-5.44-16.84-14.14,0-11.53,8.74-14.14,20.25-15.66l24.09-2.83v6.74c0,17.4-13.43,25.88-27.5,25.88ZM584.83,375.72h26.86v-156.57h-27.28v64.13c-5.12-11.09-17.48-20.66-34.32-20.66-29.27,0-49.59,23.71-49.59,57.86s20.32,57.86,49.59,57.86c16.41,0,29.41-9.14,34.74-20.23v17.62ZM585.05,322.43c0,21.53-10.02,35.45-27.28,35.45s-28.84-14.57-28.84-37.41,11.15-37.41,28.84-37.41,27.28,13.92,27.28,35.45v3.91ZM627.62,246.53h28.99v-27.19h-28.99v27.19ZM628.48,375.72h27.28v-110.49h-27.28v110.49ZM689.83,375.72l27.07-37.85,26.86,37.85h31.33l-41.99-57.86,38.58-52.64h-29.2l-24.09,34.15-23.87-34.15h-31.33l39.01,53.94-41.57,56.55h29.2Z"/>
  <path class="cls-2" d="M296.24,375.67v-55.09h35.77l33.63,55.09h29.92l-36.93-59.21c16.71-5.36,31.36-18.98,31.36-41.88,0-30.12-21.14-46.21-56.51-46.21h-64.05v147.31h26.82ZM296.24,250.02v49.1h35.98c20.42,0,30.74-8.46,30.74-24.55s-11.24-24.55-32.58-24.55h-34.14Z"/>
  <path class="cls-1" d="M131.32,403.29c-35.59,0-64.45-30.91-64.45-69.05s28.85-69.05,64.45-69.05v138.1Z"/>
  <path class="cls-1" d="M131.32,191.53h-64.45v64.45h64.45v-64.45Z"/>
  <path class="cls-1" d="M172.75,255.98c17.8,0,32.22-14.43,32.22-32.22s-14.43-32.22-32.22-32.22-32.22,14.43-32.22,32.22,14.43,32.22,32.22,32.22Z"/>
</svg>