<?xml version="1.0" encoding="UTF-8"?>
<svg id="katman_1" data-name="katman 1" xmlns="http://www.w3.org/2000/svg" version="1.1" viewBox="0 0 841.89 595.28">
  <defs>
    <style>
      .cls-1 {
        fill-rule: evenodd;
      }

      .cls-1, .cls-2 {
        fill: #1d1d1b;
        stroke-width: 0px;
      }
    </style>
  </defs>
  <path class="cls-1" d="M225.77,339.39c1.45,18.6,1.45,27.32,1.45,36.84h-43.07c0-2.07.04-3.97.07-5.89.12-5.98.24-12.21-.73-24.8-1.28-18.43-9.22-22.53-23.83-22.53h-67.74v-33.54h69.79c18.45,0,27.67-5.61,27.67-20.46,0-13.06-9.22-20.97-27.67-20.97h-69.79v-32.82h77.48c41.77,0,62.52,19.71,62.52,51.2,0,23.55-14.61,38.91-34.33,41.47,16.65,3.33,26.39,12.8,28.19,31.49Z"/>
  <path class="cls-2" d="M91.92,376.23v-25h45.54c7.61,0,9.26,5.64,9.26,9v16h-54.8Z"/>
  <path class="cls-2" d="M746.46,262.34h-42.75l-19.46,27.14-18.94-27.14h-45.82l41.22,56.06-44.8,58.11h42.75l22.78-30.98,22.78,30.98h45.82l-45.06-59.9,41.47-54.27Z"/>
  <path class="cls-2" d="M746.46,262.34h-42.75l-19.46,27.14-18.94-27.14h-45.82l41.22,56.06-44.8,58.11h42.75l22.78-30.98,22.78,30.98h45.82l-45.06-59.9,41.47-54.27Z"/>
  <path class="cls-2" d="M321.35,335.81c-3.84,8.96-11.01,12.8-22.27,12.8-12.54,0-22.78-6.66-23.81-20.74h80.13v-11.52c0-30.98-20.22-57.09-58.37-57.09-35.58,0-62.21,25.86-62.21,61.95s26.11,58.37,62.72,58.37c30.21,0,51.2-14.59,57.09-40.7l-33.28-3.07ZM275.79,307.91c1.54-10.75,7.42-18.94,20.74-18.94,12.29,0,18.94,8.7,19.46,18.94h-40.19Z"/>
  <path class="cls-2" d="M321.35,335.81c-3.84,8.96-11.01,12.8-22.27,12.8-12.54,0-22.78-6.66-23.81-20.74h80.13v-11.52c0-30.98-20.22-57.09-58.37-57.09-35.58,0-62.21,25.86-62.21,61.95s26.11,58.37,62.72,58.37c30.21,0,51.2-14.59,57.09-40.7l-33.28-3.07ZM275.79,307.91c1.54-10.75,7.42-18.94,20.74-18.94,12.29,0,18.94,8.7,19.46,18.94h-40.19Z"/>
  <path class="cls-2" d="M477.18,281.79c-4.86-13.31-15.36-22.53-35.58-22.53-17.15,0-29.44,7.68-35.58,20.22v-17.15h-41.47v114.18h41.47v-56.06c0-17.15,4.86-28.42,18.43-28.42,12.54,0,15.62,8.19,15.62,23.81v60.67h41.47v-56.06c0-17.15,4.61-28.42,18.43-28.42,12.54,0,15.36,8.19,15.36,23.81v60.67h41.47v-71.68c0-23.81-9.22-45.57-40.7-45.57-19.2,0-32.77,9.73-38.91,22.53Z"/>
  <path class="cls-2" d="M477.18,281.79c-4.86-13.31-15.36-22.53-35.58-22.53-17.15,0-29.44,7.68-35.58,20.22v-17.15h-41.47v114.18h41.47v-56.06c0-17.15,4.86-28.42,18.43-28.42,12.54,0,15.62,8.19,15.62,23.81v60.67h41.47v-56.06c0-17.15,4.61-28.42,18.43-28.42,12.54,0,15.36,8.19,15.36,23.81v60.67h41.47v-71.68c0-23.81-9.22-45.57-40.7-45.57-19.2,0-32.77,9.73-38.91,22.53Z"/>
  <path class="cls-2" d="M570.36,262.34v114.18h41.47v-114.18h-41.47ZM570.1,251.59h41.98v-36.35h-41.98v36.35Z"/>
  <path class="cls-2" d="M570.36,262.34v114.18h41.47v-114.18h-41.47ZM570.1,251.59h41.98v-36.35h-41.98v36.35Z"/>
</svg>