<?xml version="1.0" encoding="UTF-8"?>
<svg xmlns="http://www.w3.org/2000/svg" version="1.1" viewBox="0 0 841.9 595.3">
  <defs>
    <style>
      .cls-1 {
        fill: #1d1d1b;
      }
    </style>
  </defs>
  <!-- Generator: Adobe Illustrator 28.7.1, SVG Export Plug-In . SVG Version: 1.2.0 Build 142)  -->
  <g>
    <g id="katman_1">
      <path class="cls-1" d="M371.1,359.5h-24.3l-53.2-54.4h-9.9v54.4h-18v-126.8h60.4c25.4,0,40.6,13.6,40.6,36.2s-15.1,36.2-40.6,36.2h-9l54.1,54.4h0ZM348.5,268.9c0-12.9-7.2-20.8-22.5-20.8h-42.4v41.7h42.4c15.3,0,22.5-8,22.5-20.9ZM417.2,362.2c-28.9,0-46.9-21.6-46.9-49.8s18-49.8,46-49.8,36.1,12.7,42,31.5c2.2,7.1,3.1,14.9,3.1,22.8v1.8h-73.7c.5,15.2,11.7,29.9,29.6,29.9s22.4-8.9,23.8-15.4h18.6c-4.3,15.4-18.7,29-42.4,29ZM387.7,305.1h56.4c-.9-16.3-9.6-29-27.8-29s-28.1,13.6-28.7,29h0ZM462.3,279.7v-14.5h22.5v-21.7h17.3v21.7h24.3v14.5h-24.3v57.1c0,6.4,1.8,8.5,8.1,8.5h16.2v14.1h-19.8c-16.4,0-21.8-8.1-21.8-22.7v-57.1h-22.5ZM576.2,262.5c28.9,0,47.8,21.6,47.8,49.8s-18.9,49.8-47.8,49.8-47.8-21.6-47.8-49.8,18.9-49.8,47.8-49.8ZM576.2,277c-19.7,0-30.5,16.3-30.5,35.3s10.8,35.3,30.5,35.3,30.5-16.3,30.5-35.3-10.8-35.3-30.5-35.3h0ZM679.4,262.5c28.8,0,47.8,21.6,47.8,49.8s-18.9,49.8-47.8,49.8-47.8-21.6-47.8-49.8,18.9-49.8,47.8-49.8ZM679.4,277c-19.7,0-30.5,16.3-30.5,35.3s10.8,35.3,30.5,35.3,30.5-16.3,30.5-35.3-10.8-35.3-30.5-35.3h0ZM754.5,232.6v126.9h-17.3v-126.9h17.3ZM166,238.6c0-3.3-2.7-5.9-5.9-5.9h-67.4c-3.3,0-5.9,2.7-5.9,5.9v27.7c0,3.3,2.7,5.9,5.9,5.9h67.4c3.3,0,5.9,2.7,5.9,5.9v7.9c0,3.3-2.7,5.9-5.9,5.9h-43.6c-3.3,0-5.9,2.7-5.9,5.9v27.7c0,3.3,2.7,5.9,5.9,5.9h43.6c3.3,0,5.9,2.7,5.9,5.9v15.9c0,3.3,2.7,5.9,5.9,5.9h27.7c3.3,0,5.9-2.7,5.9-5.9v-27.7c0-3.3-2.7-5.9-5.9-5.9h-27.7c-3.3,0-5.9-2.7-5.9-5.9v-7.9c0-3.3,2.7-5.9,5.9-5.9h27.7c3.3,0,5.9-2.7,5.9-5.9v-27.7c0-3.3-2.7-5.9-5.9-5.9h-27.7c-3.3,0-5.9-2.7-5.9-5.9v-15.9Z"/>
    </g>
  </g>
</svg>